<?xml version="1.0" encoding="UTF-8" standalone="no"?>
<svg xmlns="http://www.w3.org/2000/svg" width="128" height="128" viewBox="0 0 128 128">
  <title>Aperture</title>
  <defs>
    <radialGradient id="bg" cx="64" cy="64" r="60" gradientUnits="userSpaceOnUse">
      <stop offset="0" stop-color="#2a2a2a"/>
      <stop offset="1" stop-color="#0a0a0a"/>
    </radialGradient>
  </defs>
  <circle cx="64" cy="64" r="60" fill="url(#bg)"/>
  <g fill="#e8e8e8" stroke="#101010" stroke-width="1.5" stroke-linejoin="round">
    <polygon points="64,16 100,40 100,52 64,28"/>
    <polygon points="100,40 112,76 102,82 76,46"/>
    <polygon points="112,76 96,108 84,104 96,68"/>
    <polygon points="96,108 60,116 56,104 88,92"/>
    <polygon points="60,116 24,100 28,88 64,96"/>
    <polygon points="24,100 12,64 24,58 44,86"/>
    <polygon points="12,64 28,32 40,36 36,68"/>
    <polygon points="28,32 64,16 68,28 40,44"/>
  </g>
  <circle cx="64" cy="64" r="10" fill="#0a0a0a" stroke="#2a2a2a" stroke-width="1.5"/>
</svg>
